<svg width="35" height="25" viewBox="0 0 35 25" fill="none" xmlns="http://www.w3.org/2000/svg">
<path d="M3.96 22.61L3.52013 23.5081L3.52758 23.5117L3.53509 23.5152L3.96 22.61ZM1.56 20.63L0.72795 21.1847L0.74122 21.2046L0.755426 21.2239L1.56 20.63ZM1.77 18.35L2.43679 19.0952L2.44741 19.0857L2.45774 19.076L1.77 18.35ZM4.62 18.71L3.91289 19.4171L3.92245 19.4267L3.93226 19.436L4.62 18.71ZM5.79 19.49L5.41861 20.4185L5.43896 20.4266L5.45965 20.4339L5.79 19.49ZM8.79 19.25L8.30436 18.3758L8.29729 18.3798L8.29028 18.3838L8.79 19.25ZM10.08 18.05L10.9223 18.5891L10.927 18.5816L10.9317 18.5741L10.08 18.05ZM11.13 2.54L11.7968 3.28524L11.8074 3.27574L11.8177 3.26595L11.13 2.54ZM13.8 2.51L13.0929 3.2171L13.0929 3.21711L13.8 2.51ZM10.74 22.37L11.2311 23.2412L11.2429 23.2343L10.74 22.37ZM7.14 22.3C6.13891 22.3 5.22492 22.0991 4.38491 21.7048L3.53509 23.5152C4.65508 24.0409 5.86109 24.3 7.14 24.3V22.3ZM4.39987 21.7119C3.55737 21.2993 2.88484 20.741 2.36457 20.0361L0.755426 21.2239C1.47516 22.199 2.40263 22.9607 3.52013 23.5081L4.39987 21.7119ZM2.39205 20.0753C2.23184 19.835 2.2 19.6751 2.2 19.58H0.2C0.2 20.1649 0.408161 20.705 0.72795 21.1847L2.39205 20.0753ZM2.2 19.58C2.2 19.4039 2.2539 19.2589 2.43679 19.0952L1.10321 17.6048C0.526103 18.1211 0.2 18.7961 0.2 19.58H2.2ZM2.45774 19.076C2.71113 18.8359 2.86711 18.81 2.94 18.81V16.81C2.21289 16.81 1.58887 17.1441 1.08226 17.624L2.45774 19.076ZM2.94 18.81C3.06908 18.81 3.38736 18.8916 3.91289 19.4171L5.32711 18.0029C4.65264 17.3284 3.85092 16.81 2.94 16.81V18.81ZM3.93226 19.436C4.38479 19.8647 4.87906 20.2027 5.41861 20.4185L6.16139 18.5615C5.90095 18.4573 5.61521 18.2753 5.30775 17.984L3.93226 19.436ZM5.45965 20.4339C5.98298 20.617 6.54725 20.7 7.14 20.7V18.7C6.73275 18.7 6.39702 18.643 6.12035 18.5461L5.45965 20.4339ZM7.14 20.7C7.90174 20.7 8.62333 20.5006 9.28972 20.1162L8.29028 18.3838C7.91667 18.5994 7.53826 18.7 7.14 18.7V20.7ZM9.27564 20.1242C9.95434 19.7471 10.5093 19.2343 10.9223 18.5891L9.23773 17.5109C9.0107 17.8657 8.70566 18.1529 8.30436 18.3758L9.27564 20.1242ZM10.9317 18.5741C11.3396 17.9112 11.56 17.1916 11.56 16.43H9.56C9.56 16.7884 9.46043 17.1488 9.22834 17.5259L10.9317 18.5741ZM11.56 16.43V3.83H9.56V16.43H11.56ZM11.56 3.83C11.56 3.58807 11.6336 3.43129 11.7968 3.28524L10.4632 1.79476C9.86644 2.32871 9.56 3.03193 9.56 3.83H11.56ZM11.8177 3.26595C12.0216 3.07281 12.2188 3 12.45 3V0.999999C11.6812 0.999999 10.9984 1.28719 10.4423 1.81405L11.8177 3.26595ZM12.45 3C12.792 3 12.9713 3.09556 13.0929 3.2171L14.5071 1.80289C13.9487 1.24444 13.228 0.999999 12.45 0.999999V3ZM13.0929 3.21711C13.2216 3.34579 13.31 3.51958 13.31 3.83H15.31C15.31 3.06042 15.0584 2.35421 14.5071 1.80289L13.0929 3.21711ZM13.31 3.83V16.43H15.31V3.83H13.31ZM13.31 16.43C13.31 17.4418 13.0429 18.3939 12.4939 19.3031L14.2061 20.3369C14.9371 19.1261 15.31 17.8182 15.31 16.43H13.31ZM12.4939 19.3031C11.9431 20.2154 11.1963 20.9476 10.2371 21.5057L11.2429 23.2343C12.4837 22.5124 13.4769 21.5446 14.2061 20.3369L12.4939 19.3031ZM10.249 21.4988C9.3034 22.0318 8.27327 22.3 7.14 22.3V24.3C8.60673 24.3 9.9766 23.9482 11.231 23.2412L10.249 21.4988ZM21.7127 22.76L21.4067 23.712L21.7127 22.76ZM18.5627 20.93L17.8984 21.6774L17.9031 21.6816L18.5627 20.93ZM18.2627 18.14L18.9698 18.8471L18.9799 18.837L18.9897 18.8266L18.2627 18.14ZM20.5127 17.96L21.1491 17.1886L21.1433 17.1838L21.1374 17.1791L20.5127 17.96ZM28.4327 19.1L27.9121 18.2462L27.9027 18.252L28.4327 19.1ZM28.4627 15.14L27.9177 15.9784L27.9252 15.9833L27.9327 15.988L28.4627 15.14ZM24.6527 13.97L24.8005 12.981L24.7973 12.9805L24.6527 13.97ZM19.0727 4.58L19.8853 5.16294L19.8911 5.15463L19.0727 4.58ZM21.7727 2.45L22.1608 3.37163L22.1676 3.36876L22.1744 3.36579L21.7727 2.45ZM29.1227 2.27L28.7962 3.2152L28.8014 3.21698L29.1227 2.27ZM31.9127 3.77L31.2705 4.53652L31.2808 4.54515L31.2913 4.5535L31.9127 3.77ZM32.2727 6.59L32.9798 7.2971L32.9899 7.28701L32.9997 7.27662L32.2727 6.59ZM30.2627 6.83L29.6344 7.60794L29.6484 7.61922L29.6627 7.63L30.2627 6.83ZM28.0727 5.69L27.7083 6.62124L27.7204 6.62597L27.7326 6.63038L28.0727 5.69ZM22.6427 5.87L23.2031 6.6983L23.2083 6.69473L22.6427 5.87ZM22.6727 9.65L22.1405 10.4967L22.1513 10.5033L22.6727 9.65ZM26.0327 10.73L25.8516 11.7135L25.8609 11.7151L26.0327 10.73ZM30.1427 11.9L29.7169 12.8048L29.7275 12.8098L29.7382 12.8145L30.1427 11.9ZM32.4827 13.82L31.6382 14.3556L31.6443 14.365L32.4827 13.82ZM32.1827 20.36L31.3827 19.76L31.3807 19.7627L32.1827 20.36ZM29.3627 22.55L29.7529 23.4708L29.7595 23.468L29.766 23.4651L29.3627 22.55ZM25.5527 22.3C24.1942 22.3 23.0206 22.13 22.0187 21.808L21.4067 23.712C22.6449 24.11 24.0312 24.3 25.5527 24.3V22.3ZM22.0187 21.808C21.0425 21.4942 20.1106 20.9579 19.2223 20.1784L17.9031 21.6816C18.9749 22.6221 20.1429 23.3058 21.4067 23.712L22.0187 21.808ZM19.2271 20.1826C18.8441 19.8421 18.7527 19.5666 18.7527 19.34H16.7527C16.7527 20.2734 17.2014 21.0579 17.8984 21.6774L19.2271 20.1826ZM18.7527 19.34C18.7527 19.1583 18.8079 19.009 18.9698 18.8471L17.5556 17.4329C17.0376 17.951 16.7527 18.6017 16.7527 19.34H18.7527ZM18.9897 18.8266C19.1476 18.6595 19.2975 18.6 19.4927 18.6V16.6C18.7279 16.6 18.0579 16.9005 17.5357 17.4534L18.9897 18.8266ZM19.4927 18.6C19.643 18.6 19.7632 18.641 19.888 18.7409L21.1374 17.1791C20.6622 16.799 20.1025 16.6 19.4927 16.6V18.6ZM19.8764 18.7314C20.7365 19.441 21.6059 19.9829 22.4856 20.3302L23.2199 18.4698C22.5796 18.2171 21.889 17.799 21.1491 17.1886L19.8764 18.7314ZM22.4856 20.3302C23.3896 20.687 24.4199 20.85 25.5527 20.85V18.85C24.6056 18.85 23.8359 18.713 23.2199 18.4698L22.4856 20.3302ZM25.5527 20.85C26.8247 20.85 27.9762 20.5646 28.9627 19.948L27.9027 18.252C27.2893 18.6354 26.5208 18.85 25.5527 18.85V20.85ZM28.9533 19.9538C29.9702 19.3338 30.6627 18.4325 30.6627 17.24H28.6627C28.6627 17.5275 28.5353 17.8662 27.9121 18.2462L28.9533 19.9538ZM30.6627 17.24C30.6627 15.9756 30.0681 14.9641 28.9927 14.292L27.9327 15.988C28.4574 16.3159 28.6627 16.7044 28.6627 17.24H30.6627ZM29.0077 14.3016C28.0249 13.6627 26.5824 13.2472 24.8005 12.981L24.5049 14.959C26.203 15.2128 27.3006 15.5773 27.9177 15.9784L29.0077 14.3016ZM24.7973 12.9805C22.7172 12.6766 21.2976 12.058 20.4068 11.2283C19.5459 10.4264 19.0827 9.33796 19.0827 7.85H17.0827C17.0827 9.80204 17.7145 11.4536 19.0436 12.6917C20.3429 13.902 22.2083 14.6234 24.5082 14.9595L24.7973 12.9805ZM19.0827 7.85C19.0827 6.77443 19.3608 5.89397 19.8853 5.16291L18.2602 3.99709C17.4647 5.10603 17.0827 6.40557 17.0827 7.85H19.0827ZM19.8911 5.15463C20.4348 4.38031 21.1801 3.78455 22.1608 3.37163L21.3847 1.52836C20.0853 2.07545 19.0307 2.89969 18.2543 4.00537L19.8911 5.15463ZM22.1744 3.36579C23.1729 2.92786 24.3038 2.7 25.5827 2.7V0.699999C24.0617 0.699999 22.6526 0.97214 21.3711 1.53421L22.1744 3.36579ZM25.5827 2.7C26.7408 2.7 27.8096 2.87436 28.7962 3.21519L29.4493 1.32481C28.2359 0.90564 26.9447 0.699999 25.5827 0.699999V2.7ZM28.8014 3.21698C29.8298 3.56588 30.6441 4.01168 31.2705 4.53652L32.555 3.00348C31.7014 2.28831 30.6557 1.73412 29.444 1.32302L28.8014 3.21698ZM31.2913 4.5535C31.6938 4.87271 31.7827 5.13615 31.7827 5.36H33.7827C33.7827 4.38385 33.2916 3.58728 32.5341 2.9865L31.2913 4.5535ZM31.7827 5.36C31.7827 5.54405 31.7251 5.71345 31.5457 5.90337L32.9997 7.27662C33.5004 6.74655 33.7827 6.09595 33.7827 5.36H31.7827ZM31.5656 5.88289C31.4037 6.04482 31.2544 6.1 31.0727 6.1V8.1C31.811 8.1 32.4618 7.81518 32.9798 7.2971L31.5656 5.88289ZM31.0727 6.1C30.9891 6.1 30.9296 6.08018 30.8627 6.03L29.6627 7.63C30.0758 7.93982 30.5564 8.1 31.0727 8.1V6.1ZM30.8911 6.05206C30.2532 5.53682 29.4108 5.11057 28.4129 4.74962L27.7326 6.63038C28.6147 6.94943 29.2323 7.28318 29.6344 7.60794L30.8911 6.05206ZM28.4371 4.75876C27.4377 4.36766 26.4815 4.15 25.5827 4.15V6.15C26.164 6.15 26.8678 6.29234 27.7083 6.62124L28.4371 4.75876ZM25.5827 4.15C24.2133 4.15 23.0064 4.40812 22.0772 5.04527L23.2083 6.69473C23.6791 6.37188 24.4322 6.15 25.5827 6.15V4.15ZM22.0824 5.04172C21.1536 5.67007 20.6227 6.57773 20.6227 7.7H22.6227C22.6227 7.30226 22.7719 6.98993 23.203 6.69828L22.0824 5.04172ZM20.6227 7.7C20.6227 8.88715 21.1355 9.8649 22.1406 10.4966L23.2049 8.80336C22.8099 8.55509 22.6227 8.23285 22.6227 7.7H20.6227ZM22.1513 10.5033C23.0294 11.0399 24.2942 11.4266 25.8516 11.7135L26.2139 9.74655C24.7312 9.47343 23.756 9.14007 23.1942 8.79672L22.1513 10.5033ZM25.8609 11.7151C27.5355 12.0072 28.8091 12.3776 29.7169 12.8048L30.5685 10.9952C29.4364 10.4624 27.97 10.0528 26.2046 9.74487L25.8609 11.7151ZM29.7382 12.8145C30.629 13.2085 31.2413 13.7296 31.6382 14.3555L33.3272 13.2845C32.6842 12.2703 31.7365 11.5115 30.5472 10.9855L29.7382 12.8145ZM31.6443 14.365C32.0243 14.9496 32.2627 15.8084 32.2627 17.03H34.2627C34.2627 15.5716 33.9812 14.2904 33.3212 13.275L31.6443 14.365ZM32.2627 17.03C32.2627 18.0852 31.9661 18.9821 31.3827 19.76L32.9827 20.96C33.8393 19.8179 34.2627 18.4948 34.2627 17.03H32.2627ZM31.3807 19.7627C30.794 20.5505 29.9976 21.1774 28.9595 21.6349L29.766 23.4651C31.0879 22.8826 32.1714 22.0495 32.9848 20.9573L31.3807 19.7627ZM28.9726 21.6292C27.9235 22.0738 26.787 22.3 25.5527 22.3V24.3C27.0385 24.3 28.442 24.0262 29.7529 23.4708L28.9726 21.6292Z" fill="black"/>
</svg>
